# xmcd
#
# Track frame offsets: 
#        150
#        15320
#        31357
#        45882
#        71195
#        84915
#        103630
#        119837
#        134252
#        156800
#
# Disc length: 2255 seconds
#
# Revision: 0
# Processed by: cddbd v1.5.1PL2 Copyright (c) Steve Scherf et al.
# Submitted via: ExactAudioCopy v0.95b4
#
DISCID=7908cd0a
DTITLE=Troy Turner - Teenage Blues In Baton Rouge
DYEAR=1990
DGENRE=Blues
TTITLE0=Teenage Blues In Baton Rouge
TTITLE1=She's Burnin'
TTITLE2=Your Daddy Wants You Back
TTITLE3=House Without A Home
TTITLE4=Xpress Train
TTITLE5=Hold Me Close
TTITLE6=Life Is A Gamble
TTITLE7=My Little Woman
TTITLE8=Lady At The Bottom Of The Sea
TTITLE9=Try To Satisfy
EXTD=
EXTT0=
EXTT1=
EXTT2=
EXTT3=
EXTT4=
EXTT5=
EXTT6=
EXTT7=
EXTT8=
EXTT9=
PLAYORDER=
